<!DOCTYPE svg PUBLIC "-//W3C//DTD SVG 1.1//EN" "http://www.w3.org/Graphics/SVG/1.1/DTD/svg11.dtd">
<!-- Uploaded to: SVG Repo, www.svgrepo.com, Transformed by: SVG Repo Mixer Tools -->
<svg version="1.1" id="Layer_1" xmlns="http://www.w3.org/2000/svg" xmlns:xlink="http://www.w3.org/1999/xlink" viewBox="0 0 460 460" xml:space="preserve" width="800px" height="800px" fill="#000000" data-darkreader-inline-fill="" style="--darkreader-inline-fill: #0d0d0d;">
<g id="SVGRepo_bgCarrier" stroke-width="0"/>
<g id="SVGRepo_tracerCarrier" stroke-linecap="round" stroke-linejoin="round"/>
<g id="SVGRepo_iconCarrier"> <g> <path style="fill: rgb(255, 127, 79); --darkreader-inline-fill: #b17e6b;" d="M230,0C102.975,0,0,102.975,0,230c0,98.967,62.507,183.335,150.196,215.778L447.33,154.523 C416.094,64.571,330.588,0,230,0z" data-darkreader-inline-fill=""/> <path style="fill: rgb(255, 84, 25); --darkreader-inline-fill: #a76751;" d="M98.927,394.5l51.269,51.269C175.058,454.968,201.94,460,230,460c127.025,0,230-102.975,230-230 c0-26.441-4.476-51.834-12.688-75.479l-86.24-86.24L98.927,394.5z" data-darkreader-inline-fill=""/> <polygon style="fill: rgb(194, 251, 255); --darkreader-inline-fill: #abcfd1;" points="276.563,87.084 276.563,48.281 230,48.281 214.479,87.084 " data-darkreader-inline-fill=""/> <rect x="183.437" y="48.281" style="fill: rgb(255, 255, 255); --darkreader-inline-fill: #c8c7c6;" width="46.563" height="38.802" data-darkreader-inline-fill=""/> <polygon style="fill: rgb(56, 198, 217); --darkreader-inline-fill: #72a6ad;" points="214.829,371.741 230.002,394.5 361.073,394.5 361.073,68.281 302,68.281 " data-darkreader-inline-fill=""/> <polygon style="fill: rgb(113, 226, 240); --darkreader-inline-fill: #8ab9c0;" points="158,68.281 98.927,68.281 98.927,394.5 230.002,394.5 230.002,371.741 " data-darkreader-inline-fill=""/> <polygon style="fill: rgb(194, 251, 255); --darkreader-inline-fill: #abcfd1;" points="206.661,88.281 230,374.5 341.073,374.5 341.073,88.281 " data-darkreader-inline-fill=""/> <rect x="118.927" y="88.281" style="fill: rgb(255, 255, 255); --darkreader-inline-fill: #c8c7c6;" width="111.073" height="286.219" data-darkreader-inline-fill=""/> <polygon style="fill: rgb(113, 226, 240); --darkreader-inline-fill: #8ab9c0;" points="230,68.281 214.827,88.281 230,108.281 302,108.281 302,68.281 " data-darkreader-inline-fill=""/> <rect x="158" y="68.281" style="fill: rgb(194, 251, 255); --darkreader-inline-fill: #abcfd1;" width="72" height="40" data-darkreader-inline-fill=""/> <polygon style="fill: rgb(255, 198, 27); --darkreader-inline-fill: #c6b070;" points="321.224,220.914 277.097,265.867 286.369,328.158 229.999,300.074 207.656,249.691 229.999,154.623 259.111,210.48 " data-darkreader-inline-fill=""/> <polygon style="fill: rgb(254, 225, 135); --darkreader-inline-fill: #cdc097;" points="229.999,154.623 229.999,300.074 173.606,328.158 182.901,265.867 138.774,220.914 200.886,210.48 " data-darkreader-inline-fill=""/> </g> </g>
</svg>