<!DOCTYPE svg PUBLIC "-//W3C//DTD SVG 1.1//EN" "http://www.w3.org/Graphics/SVG/1.1/DTD/svg11.dtd">
<!-- Uploaded to: SVG Repo, www.svgrepo.com, Transformed by: SVG Repo Mixer Tools -->
<svg height="800px" width="800px" version="1.1" id="Layer_1" xmlns="http://www.w3.org/2000/svg" xmlns:xlink="http://www.w3.org/1999/xlink" viewBox="0 0 460 460" xml:space="preserve" fill="#000000" data-darkreader-inline-fill="" style="--darkreader-inline-fill: #0d0d0d;">
<g id="SVGRepo_bgCarrier" stroke-width="0"/>
<g id="SVGRepo_tracerCarrier" stroke-linecap="round" stroke-linejoin="round"/>
<g id="SVGRepo_iconCarrier"> <g> <path style="fill: rgb(255, 237, 181); --darkreader-inline-fill: #d1c7a7;" d="M230,0C102.974,0,0,102.974,0,230c0,111.209,78.928,203.984,183.822,225.363l271.505-271.716 C433.881,78.84,341.147,0,230,0z" data-darkreader-inline-fill=""/> <path style="fill: rgb(254, 225, 135); --darkreader-inline-fill: #cdc097;" d="M460,230c0-15.812-1.598-31.25-4.636-46.163l-89.6-89.601l-271.53,271.53l89.595,89.595 C198.745,458.402,214.186,460,230,460C357.025,460,460,357.025,460,230z" data-darkreader-inline-fill=""/> <path style="fill: rgb(224, 58, 0); --darkreader-inline-fill: #a96a54;" d="M404.613,195.257c2.31,11.68,17.39,22.39,17.39,34.74c0,12.36-15.08,23.07-17.39,34.75 c-2.38,12.03,7.41,27.68,2.82,38.75c-4.67,11.26-22.71,15.39-29.41,25.4c-6.75,10.09-3.71,28.32-12.26,36.87 c-8.55,8.55-26.78,5.5-36.87,12.26c-10.01,6.7-14.14,24.73-25.4,29.4c-11.07,4.59-26.72-5.19-38.75-2.81 c-11.68,2.31-22.39,17.38-34.74,17.38l-20-192l20-192c12.35,0,23.06,15.08,34.74,17.39c12.03,2.38,27.68-7.41,38.75-2.82 c11.26,4.67,15.39,22.71,25.4,29.41c10.09,6.75,28.32,3.71,36.87,12.26s5.51,26.78,12.26,36.87c6.7,10.01,24.74,14.14,29.41,25.4 C412.023,167.577,402.233,183.227,404.613,195.257z" data-darkreader-inline-fill=""/> <path style="fill: rgb(255, 127, 79); --darkreader-inline-fill: #b17e6b;" d="M230.003,37.997v384c-12.36,0-23.07-15.07-34.75-17.38c-12.03-2.38-27.68,7.4-38.75,2.81 c-11.26-4.67-15.39-22.7-25.4-29.4c-10.09-6.76-28.32-3.71-36.87-12.26c-8.55-8.56-5.5-26.79-12.26-36.87 c-6.7-10.01-24.73-14.14-29.4-25.4c-4.59-11.07,5.19-26.72,2.81-38.75c-2.31-11.68-17.38-22.39-17.38-34.75 c0-12.35,15.07-23.06,17.38-34.74c2.38-12.03-7.4-27.68-2.81-38.75c4.67-11.26,22.7-15.39,29.4-25.4 c6.76-10.09,3.71-28.32,12.26-36.87c8.56-8.55,26.79-5.51,36.87-12.26c10.01-6.7,14.14-24.74,25.4-29.41 c11.07-4.59,26.72,5.2,38.75,2.82C206.933,53.077,217.643,37.997,230.003,37.997z" data-darkreader-inline-fill=""/> <path style="fill: rgb(255, 173, 158); --darkreader-inline-fill: #bb928a;" d="M230.333,67.058c-89.801,0-162.608,72.809-162.608,162.609s72.808,162.608,162.608,162.608 l20.326-162.608L230.333,67.058z" data-darkreader-inline-fill=""/> <path style="fill: rgb(255, 127, 79); --darkreader-inline-fill: #b17e6b;" d="M230.333,67.058v325.217c89.801,0,162.608-72.807,162.608-162.608S320.134,67.058,230.333,67.058z" data-darkreader-inline-fill=""/> <path style="fill: rgb(255, 255, 255); --darkreader-inline-fill: #c8c7c6;" d="M230.333,97.058c-73.233,0-132.608,59.376-132.608,132.609S157.1,362.275,230.333,362.275 l16.576-132.608L230.333,97.058z" data-darkreader-inline-fill=""/> <path style="fill: rgb(255, 173, 158); --darkreader-inline-fill: #bb928a;" d="M230.333,97.058v265.217c73.233,0,132.608-59.375,132.608-132.608S303.566,97.058,230.333,97.058z" data-darkreader-inline-fill=""/> <path style="fill: rgb(255, 84, 25); --darkreader-inline-fill: #a76751;" d="M304.775,188.764c7.82,0,14.163,6.336,14.163,14.163c0,7.82-6.343,14.156-14.163,14.156h-46.254 l12.788-28.319H304.775z" data-darkreader-inline-fill=""/> <path style="fill: rgb(255, 84, 25); --darkreader-inline-fill: #a76751;" d="M298.975,227.083c7.82,0,14.163,6.343,14.163,14.169c0,7.82-6.343,14.156-14.163,14.156h-40.454 v-28.325L298.975,227.083L298.975,227.083z" data-darkreader-inline-fill=""/> <path style="fill: rgb(255, 84, 25); --darkreader-inline-fill: #a76751;" d="M293.176,265.408c7.82,0,14.163,6.343,14.163,14.163c0,7.826-6.343,14.163-14.163,14.163h-34.655 v-28.325L293.176,265.408L293.176,265.408z" data-darkreader-inline-fill=""/> <path style="fill: rgb(255, 84, 25); --darkreader-inline-fill: #a76751;" d="M287.377,303.733c7.82,0,14.156,6.343,14.156,14.163s-6.336,14.026-14.156,14.026h-16.068 l-12.788-28.189H287.377z" data-darkreader-inline-fill=""/> <path style="fill: rgb(255, 127, 79); --darkreader-inline-fill: #b17e6b;" d="M239.595,188.764c11.215-17.212,16.765-39.355,16.765-61.964c0-9.15-7.41-16.56-16.554-16.56 c-9.15,0-16.567,7.41-16.567,16.56c0,34.22-27.737,61.964-61.957,61.964L142.1,265.817l19.182,66.105h110.027V188.764H239.595z" data-darkreader-inline-fill=""/> <path style="fill: rgb(224, 58, 0); --darkreader-inline-fill: #a96a54;" d="M161.283,260.346v71.57h-15.38c-21.88-18.08-37.85-43.05-44.61-71.57l31.635-20L161.283,260.346z" data-darkreader-inline-fill=""/> <path style="fill: rgb(255, 84, 25); --darkreader-inline-fill: #a76751;" d="M161.283,188.767v71.58h-59.99c-2.33-9.85-3.57-20.12-3.57-30.68c0-14.27,2.27-28.02,6.44-40.9 H161.283z" data-darkreader-inline-fill=""/> </g> </g>
</svg>